<svg width="800" height="450" viewBox="0 0 800 450" fill="none" xmlns="http://www.w3.org/2000/svg">
  <!-- Headers -->
  <rect x="0" y="0" width="266" height="32" rx="0" fill="#1F3864"/>
  <text x="133" y="21" text-anchor="middle" fill="white" font-family="Fraunces, serif" font-size="10" font-weight="bold">FRONTEND &amp; UI</text>
  
  <rect x="266" y="0" width="268" height="32" rx="0" fill="#2E5FA3"/>
  <text x="400" y="21" text-anchor="middle" fill="white" font-family="Fraunces, serif" font-size="10" font-weight="bold">CORE BACKEND (BAAS)</text>
  
  <rect x="534" y="0" width="266" height="32" rx="0" fill="#1F7A45"/>
  <text x="667" y="21" text-anchor="middle" fill="white" font-family="Fraunces, serif" font-size="10" font-weight="bold">MOBILE &amp; OMNICHANNEL</text>

  <!-- Vertical Dividers -->
  <line x1="266" y1="40" x2="266" y2="430" stroke="#E5E7EB" stroke-dasharray="5 5"/>
  <line x1="534" y1="40" x2="534" y2="430" stroke="#E5E7EB" stroke-dasharray="5 5"/>

  <!-- Column 1: Next.js -->
  <rect x="53" y="60" width="160" height="70" rx="8" fill="#000000" stroke="#2C1A0E" stroke-width="2"/>
  <text x="133" y="95" text-anchor="middle" fill="white" font-family="DM Sans, sans-serif" font-size="12" font-weight="bold">Next.js 14</text>
  <text x="133" y="112" text-anchor="middle" fill="#EBF2FC" font-family="DM Sans, sans-serif" font-size="9">App Router &amp; Server Components</text>

  <rect x="53" y="145" width="160" height="40" rx="4" fill="#FDF3E3" stroke="#C2440A" stroke-width="1"/>
  <text x="133" y="170" text-anchor="middle" fill="#2C1A0E" font-family="DM Sans, sans-serif" font-size="10" font-weight="bold">Tailwind CSS + Shadcn</text>

  <rect x="53" y="195" width="160" height="40" rx="4" fill="#FDF3E3" stroke="#C2440A" stroke-width="1"/>
  <text x="133" y="220" text-anchor="middle" fill="#2C1A0E" font-family="DM Sans, sans-serif" font-size="10" font-weight="bold">Framer Motion</text>

  <!-- Column 2: Supabase -->
  <rect x="320" y="60" width="160" height="70" rx="8" fill="#3ECF8E" stroke="#1F3864" stroke-width="2"/>
  <text x="400" y="95" text-anchor="middle" fill="#1F3864" font-family="DM Sans, sans-serif" font-size="12" font-weight="bold">Supabase</text>
  <text x="400" y="112" text-anchor="middle" fill="#1F3864" font-family="DM Sans, sans-serif" font-size="9">The Backend for Scale</text>

  <rect x="320" y="145" width="160" height="45" rx="4" fill="#E2F0E8" stroke="#1F7A45" stroke-width="1"/>
  <text x="400" y="172" text-anchor="middle" fill="#003300" font-family="DM Sans, sans-serif" font-size="10" font-weight="bold">PostgreSQL + RLS</text>

  <rect x="320" y="200" width="160" height="45" rx="4" fill="#E2F0E8" stroke="#1F7A45" stroke-width="1"/>
  <text x="400" y="227" text-anchor="middle" fill="#003300" font-family="DM Sans, sans-serif" font-size="10" font-weight="bold">Auth JWT / Realtime</text>

  <!-- Column 3: Expo -->
  <rect x="587" y="60" width="160" height="70" rx="8" fill="#FFFFFF" stroke="#000000" stroke-width="2"/>
  <text x="667" y="95" text-anchor="middle" fill="#000000" font-family="DM Sans, sans-serif" font-size="12" font-weight="bold">Expo / React Native</text>
  <text x="667" y="112" text-anchor="middle" fill="#7A5035" font-family="DM Sans, sans-serif" font-size="9">Universal App Engine</text>

  <rect x="587" y="145" width="160" height="40" rx="4" fill="#FAE8CC" stroke="#B07040" stroke-width="1"/>
  <text x="667" y="170" text-anchor="middle" fill="#2C1A0E" font-family="DM Sans, sans-serif" font-size="10" font-weight="bold">Native Components</text>

  <!-- Row 2: DevEx Tools -->
  <rect x="53" y="320" width="160" height="50" rx="4" fill="#3178C6" stroke="#FFFFFF" stroke-width="1"/>
  <text x="133" y="352" text-anchor="middle" fill="white" font-family="DM Sans, sans-serif" font-size="11" font-weight="bold">TypeScript</text>

  <rect x="320" y="320" width="160" height="50" rx="4" fill="#EF4444" stroke="#FFFFFF" stroke-width="1"/>
  <text x="400" y="352" text-anchor="middle" fill="white" font-family="DM Sans, sans-serif" font-size="11" font-weight="bold">Turborepo</text>

  <rect x="587" y="320" width="160" height="50" rx="4" fill="#181717" stroke="#FFFFFF" stroke-width="1"/>
  <text x="667" y="352" text-anchor="middle" fill="white" font-family="DM Sans, sans-serif" font-size="11" font-weight="bold">GitHub Actions</text>

  <!-- Connectors -->
  <path d="M213 95 H320" stroke="#1F3864" stroke-width="2" marker-end="url(#arrowBlue)"/>
  <path d="M587 95 H480" stroke="#1F3864" stroke-width="2" marker-end="url(#arrowBlue)"/>

  <!-- Markers -->
  <defs>
    <marker id="arrowBlue" markerWidth="6" markerHeight="6" refX="6" refY="3" orient="auto">
      <path d="M0,0 L6,3 L0,6 Z" fill="#1F3864" />
    </marker>
  </defs>

  <rect x="0" y="435" width="800" height="15" fill="#1F3864"/>
  <text x="400" y="446" text-anchor="middle" fill="white" font-family="Arial" font-size="8" font-weight="600">MENU BYTES · FULL-STACK ECOSYSTEM · ELITE ARCHITECTURE · 2026</text>
</svg>
