<svg xmlns="http://www.w3.org/2000/svg" xmlns:xlink="http://www.w3.org/1999/xlink" version="1.1" width="1051px" height="751px" viewBox="-0.5 -0.5 1051 751" content="&lt;mxfile&gt;&lt;diagram id=&quot;solucion-to-be&quot; name=&quot;Flujo Solución To-Be (Corregido)&quot;&gt;7Ztbc+I2FMc/DTPpm40vwCOBkHaadDJLp/u4I2wB2jUWK8tJyKfvkW9ISKRqsJ1MU3aGNUcylv4/nYtlMvBmu+dbhvbbexrjZDB04ueBNx8MhyNnAu/CcCgNoe+Uhg0jcWlyj4YlecGVse6WkxhnSkdOacLJXjVGNE1xxBUbYow+qd3WNFGvukcbrBmWEUp061cS821ldR3n2PArJpttdelxUDXsUN25MmRbFNMnyeTdDLwZo5SXR7vnGU6EdrUu5XmLM63NwBhOuc0Je5CtPOcRJXk1vUWSf6cCD4a3BxyTmGZwdLWkSR6RwcwbXHspGJYILeG/+xyU5zhFKf+lmhU/1FJlT2SXoBQ+XUdbksR36EBzMbSMo+hH/el6Sxl5oSlHCTQ5YIBmxivynqP0WIozweyCdU2SZEYTyoqreYup+Cfs0FOyl6/iaxn9gaWWWfESLXsUkXRzh9didK64pC5mpe8jZhw/S6ZK3FtMd5izA3SpWmvOB/Xjk7RqnHpxbKUVM6qNqFqqm+arjzThoAJqhit0/xYlRAz/lPGsMAvA4usAIs7Qa/BkHr5jUL546crP/WDuzUzKNy3ijGV1Udcou7RKrZX3dKmHTldKp67QWRP5C0YJeUGNFw2GYSJW+4rB0UYcXd3jtHCoKXS6PnCc6S7EaJ7GOK7UedqCry1hsYrWJwivwjf4LjE7hKX8kn1dvAxYmlBlZqQvNmtUvuokY4OTDA3k/FbAOUZyEOpIRLhAl4i3WQ7z0h3kEjSN0NZoznpMb2j8SY9simFn+R7pdMC4QpmIXlfCxzjZieMvkEswezUH/WMYG0MCMUjvBP44dE2wnOHYn406C2M9x7GhEFzT+7c0gwELP6AshoClhbFBcL3HaQz5cxDMdf23aC8OY8RRxinDLfqKIr8RmIVvSIvsrZ4xsnSMsA1KvpHSNOJ5nW+QkRHUw2vCdhCwPiml5nMvmEY2mBzgwjCCW6FPysQzFcWdMZkYmdxAXhDlmYAB96oEJvN5ncR3+gTiumYijzAvQ8EsMg067KDxG8M/Py0i2xq5HUTmfPMH5WRNIiRtCZzSesizrQaIbelulWf/QSxB0COWYtAbxF5oqqG5BfNxn+bqnq5Igi8qjNfx2l+HusSTibvyjFBuXHfujzsrjP1+C2NPSK3p/AVHZIWLBQD3iGV1ZSi9it3Pegugl1tIRXwjLguPUBbXW33CDS19opXb+fHrmKaPJGt2Nu9IxoucPwzRTghdvoPlJuUMb0RxJm52zHtjl3Br6Fhzu2hXphWOvmvg6HXF0Q1eB4kqkAfd2e4S/Fhs2fw5rSrs//kNpGcsffArd5xoRFJ982ZWmZ2r3+fLyzZrFovV2jEFuQA5jgnPIpjcONed5aSw35wUCIk1ff8iWXN/aXCPB4ZhmvKedC8JSVHeyMpmD1NeUW/eA7At0loJZKGRkchDAsHPXAQznHFRrE1dQzCrclSFrElMLTJryFgzu+wRQRsMPYOjdcYQBxZTyWjOIqw7JoSwDeb6YsCx8ohZnzjDCeLkUe7URkxG3w0RuTBWDwKn8Y6kl0TltSPuFfRV44Zh4PmmdeaGU8+fdhaVx6aobFosLT0KHL6qclPCVI+Y8rinCKyobORi473HmVnrH5wUkqZnSN0Vkp6ZRh2Bkeit3C6fhuAq9EZ0xeqK9NOwCkw3b92xCs94DsGMSU9hg1l6NU2BnEiac04iuOpwIX6NopeTcAmyz/79HmBDwJqNXVYsGsvgOekUXegFdujaCHrYNfzy6GQmSoZUgqSSIxWH7T9LYsNEXNMEjj8bUIYvPUB9h8EP7QYvDVIZvLTJ1d7gi1On4MAHqcOekpRn0jc/CMNxMXsnq7m+izoKUX7jUZZmaHZKeXZKSYooSvldYP6YSvl2Svln1lTwnjUvDu0GH54p2Efv6s0ju8GPzig//rDe7Actr9GxnVLjM948eVfME8uM45xJOfIT1PdImI7l+N0z61SpBd5jApZZU6lM1Bl0kg7sJ2CZzNxzMVrebf9goSIctxwqXMt8JmuiihX2uVzh4/GvAcr5Hv+kwrv5Gw==&lt;/diagram&gt;&lt;/mxfile&gt;"><defs/><g><path d="M 30 0 L 0 0 L 0 750 L 30 750" fill="#fafafa" stroke="#cccccc" stroke-miterlimit="10" pointer-events="all"/><path d="M 30 0 L 1050 0 L 1050 750 L 30 750" fill="none" stroke="#cccccc" stroke-miterlimit="10" pointer-events="none"/><path d="M 30 0 L 30 750" fill="none" stroke="#cccccc" stroke-miterlimit="10" pointer-events="none"/><g fill="#333333" font-family="Helvetica" font-weight="bold" pointer-events="none" text-anchor="middle" font-size="12px" transform="rotate(-90,15,370)"><text x="14.5" y="374.5">Flujo de Pedidos (Solución SaaS Multitenant)</text></g><path d="M 30 40 L 30 0 L 230 0 L 230 40" fill="#ffffff" stroke="#d45d3c" stroke-miterlimit="10" pointer-events="none"/><path d="M 30 40 L 30 750 L 230 750 L 230 40" fill="none" stroke="#d45d3c" stroke-miterlimit="10" pointer-events="none"/><path d="M 30 40 L 230 40" fill="none" stroke="#d45d3c" stroke-miterlimit="10" pointer-events="none"/><g fill="#D45D3C" font-family="Helvetica" font-weight="bold" pointer-events="none" text-anchor="middle" font-size="12px"><text x="129.5" y="24.5">Cliente / Mesa</text></g><rect x="70" y="80" width="120" height="40" rx="6" ry="6" fill="#000000" stroke="#000000" pointer-events="none" transform="translate(2,3)" opacity="0.25"/><rect x="70" y="80" width="120" height="40" rx="6" ry="6" fill="#d45d3c" stroke="#d45d3c" pointer-events="none"/><g transform="translate(-0.5 -0.5)"><switch><foreignObject pointer-events="none" width="100%" height="100%" requiredFeatures="http://www.w3.org/TR/SVG11/feature#Extensibility" style="overflow: visible; text-align: left;"><div xmlns="http://www.w3.org/1999/xhtml" style="display: flex; align-items: unsafe center; justify-content: unsafe center; width: 118px; height: 1px; padding-top: 100px; margin-left: 71px;"><div data-drawio-colors="color: #ffffff; " style="box-sizing: border-box; font-size: 0px; text-align: center;"><div style="display: inline-block; font-size: 12px; font-family: Helvetica; color: rgb(255, 255, 255); line-height: 1.2; pointer-events: none; font-weight: bold; white-space: normal; overflow-wrap: normal;">Realiza Pedido<br />(Menú Bytes)</div></div></div></foreignObject><text x="130" y="104" fill="#ffffff" font-family="Helvetica" font-size="12px" text-anchor="middle" font-weight="bold">Realiza Pedido...</text></switch></g><rect x="70" y="490" width="120" height="40" rx="6" ry="6" fill="#000000" stroke="#000000" pointer-events="none" transform="translate(2,3)" opacity="0.25"/><rect x="70" y="490" width="120" height="40" rx="6" ry="6" fill="#ffffff" stroke="#d45d3c" pointer-events="none"/><g transform="translate(-0.5 -0.5)"><switch><foreignObject pointer-events="none" width="100%" height="100%" requiredFeatures="http://www.w3.org/TR/SVG11/feature#Extensibility" style="overflow: visible; text-align: left;"><div xmlns="http://www.w3.org/1999/xhtml" style="display: flex; align-items: unsafe center; justify-content: unsafe center; width: 118px; height: 1px; padding-top: 510px; margin-left: 71px;"><div data-drawio-colors="color: #D45D3C; " style="box-sizing: border-box; font-size: 0px; text-align: center;"><div style="display: inline-block; font-size: 12px; font-family: Helvetica; color: rgb(212, 93, 60); line-height: 1.2; pointer-events: none; font-weight: bold; white-space: normal; overflow-wrap: normal;">Solicita la Cuenta</div></div></div></foreignObject><text x="130" y="514" fill="#D45D3C" font-family="Helvetica" font-size="12px" text-anchor="middle" font-weight="bold">Solicita la Cuenta</text></switch></g><path d="M 230 40 L 230 0 L 430 0 L 430 40" fill="#f8fafc" stroke="#0284c7" stroke-miterlimit="10" pointer-events="none"/><path d="M 230 40 L 230 750 L 430 750 L 430 40" fill="none" stroke="#0284c7" stroke-miterlimit="10" pointer-events="none"/><path d="M 230 40 L 430 40" fill="none" stroke="#0284c7" stroke-miterlimit="10" pointer-events="none"/><g fill="#054861" font-family="Helvetica" font-weight="bold" pointer-events="none" text-anchor="middle" font-size="12px"><text x="329.5" y="24.5">Supabase (Realtime Router)</text></g><path d="M 270 78 C 270 67.33 390 67.33 390 78 L 390 122 C 390 132.67 270 132.67 270 122 Z" fill="#000000" stroke="#000000" stroke-miterlimit="10" pointer-events="none" transform="translate(2,3)" opacity="0.25"/><path d="M 270 78 C 270 67.33 390 67.33 390 78 L 390 122 C 390 132.67 270 132.67 270 122 Z" fill="#ffffff" stroke="#0284c7" stroke-miterlimit="10" pointer-events="none"/><path d="M 270 78 C 270 86 390 86 390 78 M 270 82 C 270 90 390 90 390 82 M 270 86 C 270 94 390 94 390 86" fill="none" stroke="#0284c7" stroke-miterlimit="10" pointer-events="none"/><g transform="translate(-0.5 -0.5)"><switch><foreignObject pointer-events="none" width="100%" height="100%" requiredFeatures="http://www.w3.org/TR/SVG11/feature#Extensibility" style="overflow: visible; text-align: left;"><div xmlns="http://www.w3.org/1999/xhtml" style="display: flex; align-items: unsafe center; justify-content: unsafe center; width: 118px; height: 1px; padding-top: 110px; margin-left: 271px;"><div data-drawio-colors="color: #054861; " style="box-sizing: border-box; font-size: 0px; text-align: center;"><div style="display: inline-block; font-size: 12px; font-family: Helvetica; color: rgb(5, 72, 97); line-height: 1.2; pointer-events: none; white-space: normal; overflow-wrap: normal;">Inserta orden<br />[pending]</div></div></div></foreignObject><text x="330" y="114" fill="#054861" font-family="Helvetica" font-size="12px" text-anchor="middle">Inserta orden...</text></switch></g><path d="M 270 248 C 270 237.33 390 237.33 390 248 L 390 292 C 390 302.67 270 302.67 270 292 Z" fill="#000000" stroke="#000000" stroke-miterlimit="10" pointer-events="none" transform="translate(2,3)" opacity="0.25"/><path d="M 270 248 C 270 237.33 390 237.33 390 248 L 390 292 C 390 302.67 270 302.67 270 292 Z" fill="#ffffff" stroke="#0284c7" stroke-miterlimit="10" pointer-events="none"/><path d="M 270 248 C 270 256 390 256 390 248 M 270 252 C 270 260 390 260 390 252 M 270 256 C 270 264 390 264 390 256" fill="none" stroke="#0284c7" stroke-miterlimit="10" pointer-events="none"/><g transform="translate(-0.5 -0.5)"><switch><foreignObject pointer-events="none" width="100%" height="100%" requiredFeatures="http://www.w3.org/TR/SVG11/feature#Extensibility" style="overflow: visible; text-align: left;"><div xmlns="http://www.w3.org/1999/xhtml" style="display: flex; align-items: unsafe center; justify-content: unsafe center; width: 118px; height: 1px; padding-top: 280px; margin-left: 271px;"><div data-drawio-colors="color: #054861; " style="box-sizing: border-box; font-size: 0px; text-align: center;"><div style="display: inline-block; font-size: 12px; font-family: Helvetica; color: rgb(5, 72, 97); line-height: 1.2; pointer-events: none; white-space: normal; overflow-wrap: normal;">Actualiza a<br />[confirmed]</div></div></div></foreignObject><text x="330" y="284" fill="#054861" font-family="Helvetica" font-size="12px" text-anchor="middle">Actualiza a...</text></switch></g><path d="M 270 328 C 270 317.33 390 317.33 390 328 L 390 372 C 390 382.67 270 382.67 270 372 Z" fill="#000000" stroke="#000000" stroke-miterlimit="10" pointer-events="none" transform="translate(2,3)" opacity="0.25"/><path d="M 270 328 C 270 317.33 390 317.33 390 328 L 390 372 C 390 382.67 270 382.67 270 372 Z" fill="#ffffff" stroke="#0284c7" stroke-miterlimit="10" pointer-events="none"/><path d="M 270 328 C 270 336 390 336 390 328 M 270 332 C 270 340 390 340 390 332 M 270 336 C 270 344 390 344 390 336" fill="none" stroke="#0284c7" stroke-miterlimit="10" pointer-events="none"/><g transform="translate(-0.5 -0.5)"><switch><foreignObject pointer-events="none" width="100%" height="100%" requiredFeatures="http://www.w3.org/TR/SVG11/feature#Extensibility" style="overflow: visible; text-align: left;"><div xmlns="http://www.w3.org/1999/xhtml" style="display: flex; align-items: unsafe center; justify-content: unsafe center; width: 118px; height: 1px; padding-top: 360px; margin-left: 271px;"><div data-drawio-colors="color: #054861; " style="box-sizing: border-box; font-size: 0px; text-align: center;"><div style="display: inline-block; font-size: 12px; font-family: Helvetica; color: rgb(5, 72, 97); line-height: 1.2; pointer-events: none; white-space: normal; overflow-wrap: normal;">Actualiza a [ready]</div></div></div></foreignObject><text x="330" y="364" fill="#054861" font-family="Helvetica" font-size="12px" text-anchor="middle">Actualiza a [ready]</text></switch></g><path d="M 270 408 C 270 397.33 390 397.33 390 408 L 390 452 C 390 462.67 270 462.67 270 452 Z" fill="#000000" stroke="#000000" stroke-miterlimit="10" pointer-events="none" transform="translate(2,3)" opacity="0.25"/><path d="M 270 408 C 270 397.33 390 397.33 390 408 L 390 452 C 390 462.67 270 462.67 270 452 Z" fill="#ffffff" stroke="#0284c7" stroke-miterlimit="10" pointer-events="none"/><path d="M 270 408 C 270 416 390 416 390 408 M 270 412 C 270 420 390 420 390 412 M 270 416 C 270 424 390 424 390 416" fill="none" stroke="#0284c7" stroke-miterlimit="10" pointer-events="none"/><g transform="translate(-0.5 -0.5)"><switch><foreignObject pointer-events="none" width="100%" height="100%" requiredFeatures="http://www.w3.org/TR/SVG11/feature#Extensibility" style="overflow: visible; text-align: left;"><div xmlns="http://www.w3.org/1999/xhtml" style="display: flex; align-items: unsafe center; justify-content: unsafe center; width: 118px; height: 1px; padding-top: 440px; margin-left: 271px;"><div data-drawio-colors="color: #054861; " style="box-sizing: border-box; font-size: 0px; text-align: center;"><div style="display: inline-block; font-size: 12px; font-family: Helvetica; color: rgb(5, 72, 97); line-height: 1.2; pointer-events: none; white-space: normal; overflow-wrap: normal;">Estado [delivered]</div></div></div></foreignObject><text x="330" y="444" fill="#054861" font-family="Helvetica" font-size="12px" text-anchor="middle">Estado [delivered]</text></switch></g><path d="M 270 488 C 270 477.33 390 477.33 390 488 L 390 532 C 390 542.67 270 542.67 270 532 Z" fill="#000000" stroke="#000000" stroke-miterlimit="10" pointer-events="none" transform="translate(2,3)" opacity="0.25"/><path d="M 270 488 C 270 477.33 390 477.33 390 488 L 390 532 C 390 542.67 270 542.67 270 532 Z" fill="#ffffff" stroke="#0284c7" stroke-miterlimit="10" pointer-events="none"/><path d="M 270 488 C 270 496 390 496 390 488 M 270 492 C 270 500 390 500 390 492 M 270 496 C 270 504 390 504 390 496" fill="none" stroke="#0284c7" stroke-miterlimit="10" pointer-events="none"/><g transform="translate(-0.5 -0.5)"><switch><foreignObject pointer-events="none" width="100%" height="100%" requiredFeatures="http://www.w3.org/TR/SVG11/feature#Extensibility" style="overflow: visible; text-align: left;"><div xmlns="http://www.w3.org/1999/xhtml" style="display: flex; align-items: unsafe center; justify-content: unsafe center; width: 118px; height: 1px; padding-top: 520px; margin-left: 271px;"><div data-drawio-colors="color: #054861; " style="box-sizing: border-box; font-size: 0px; text-align: center;"><div style="display: inline-block; font-size: 12px; font-family: Helvetica; color: rgb(5, 72, 97); line-height: 1.2; pointer-events: none; white-space: normal; overflow-wrap: normal;">Evento<br />[payment_req]</div></div></div></foreignObject><text x="330" y="524" fill="#054861" font-family="Helvetica" font-size="12px" text-anchor="middle">Evento...</text></switch></g><path d="M 330 550 L 390 580 L 330 610 L 270 580 Z" fill="#000000" stroke="#000000" stroke-miterlimit="10" pointer-events="none" transform="translate(2,3)" opacity="0.25"/><path d="M 330 550 L 390 580 L 330 610 L 270 580 Z" fill="#ffffff" stroke="#0284c7" stroke-miterlimit="10" pointer-events="none"/><g transform="translate(-0.5 -0.5)"><switch><foreignObject pointer-events="none" width="100%" height="100%" requiredFeatures="http://www.w3.org/TR/SVG11/feature#Extensibility" style="overflow: visible; text-align: left;"><div xmlns="http://www.w3.org/1999/xhtml" style="display: flex; align-items: unsafe center; justify-content: unsafe center; width: 118px; height: 1px; padding-top: 580px; margin-left: 271px;"><div data-drawio-colors="color: #054861; " style="box-sizing: border-box; font-size: 0px; text-align: center;"><div style="display: inline-block; font-size: 12px; font-family: Helvetica; color: rgb(5, 72, 97); line-height: 1.2; pointer-events: none; white-space: normal; overflow-wrap: normal;">Notificación<br />Push</div></div></div></foreignObject><text x="330" y="584" fill="#054861" font-family="Helvetica" font-size="12px" text-anchor="middle">Notificación...</text></switch></g><path d="M 430 40 L 430 0 L 630 0 L 630 40" fill="#fdf4f6" stroke="#e11d48" stroke-miterlimit="10" pointer-events="none"/><path d="M 430 40 L 430 750 L 630 750 L 630 40" fill="none" stroke="#e11d48" stroke-miterlimit="10" pointer-events="none"/><path d="M 430 40 L 630 40" fill="none" stroke="#e11d48" stroke-miterlimit="10" pointer-events="none"/><g fill="#991b3f" font-family="Helvetica" font-weight="bold" pointer-events="none" text-anchor="middle" font-size="12px"><text x="529.5" y="24.5">Garzón (Mobile)</text></g><rect x="470" y="160" width="120" height="40" rx="6" ry="6" fill="#000000" stroke="#000000" pointer-events="none" transform="translate(2,3)" opacity="0.25"/><rect x="470" y="160" width="120" height="40" rx="6" ry="6" fill="#ffffff" stroke="#e11d48" pointer-events="none"/><g transform="translate(-0.5 -0.5)"><switch><foreignObject pointer-events="none" width="100%" height="100%" requiredFeatures="http://www.w3.org/TR/SVG11/feature#Extensibility" style="overflow: visible; text-align: left;"><div xmlns="http://www.w3.org/1999/xhtml" style="display: flex; align-items: unsafe center; justify-content: unsafe center; width: 118px; height: 1px; padding-top: 180px; margin-left: 471px;"><div data-drawio-colors="color: #991b3f; " style="box-sizing: border-box; font-size: 0px; text-align: center;"><div style="display: inline-block; font-size: 12px; font-family: Helvetica; color: rgb(153, 27, 63); line-height: 1.2; pointer-events: none; white-space: normal; overflow-wrap: normal;">Recibe y Confirma<br />el Pedido</div></div></div></foreignObject><text x="530" y="184" fill="#991b3f" font-family="Helvetica" font-size="12px" text-anchor="middle">Recibe y Confirma...</text></switch></g><rect x="470" y="410" width="130" height="40" rx="6" ry="6" fill="#000000" stroke="#000000" pointer-events="none" transform="translate(2,3)" opacity="0.25"/><rect x="470" y="410" width="130" height="40" rx="6" ry="6" fill="#e11d48" stroke="#e11d48" pointer-events="none"/><g transform="translate(-0.5 -0.5)"><switch><foreignObject pointer-events="none" width="100%" height="100%" requiredFeatures="http://www.w3.org/TR/SVG11/feature#Extensibility" style="overflow: visible; text-align: left;"><div xmlns="http://www.w3.org/1999/xhtml" style="display: flex; align-items: unsafe center; justify-content: unsafe center; width: 128px; height: 1px; padding-top: 430px; margin-left: 471px;"><div data-drawio-colors="color: #ffffff; " style="box-sizing: border-box; font-size: 0px; text-align: center;"><div style="display: inline-block; font-size: 12px; font-family: Helvetica; color: rgb(255, 255, 255); line-height: 1.2; pointer-events: none; font-weight: bold; white-space: normal; overflow-wrap: normal;">Recibe Aviso de Listo &amp; Entrega en Mesa</div></div></div></foreignObject><text x="535" y="434" fill="#ffffff" font-family="Helvetica" font-size="12px" text-anchor="middle" font-weight="bold">Recibe Aviso de Listo...</text></switch></g><rect x="470" y="640" width="130" height="40" rx="6" ry="6" fill="#000000" stroke="#000000" pointer-events="none" transform="translate(2,3)" opacity="0.25"/><rect x="470" y="640" width="130" height="40" rx="6" ry="6" fill="#e11d48" stroke="#e11d48" pointer-events="none"/><g transform="translate(-0.5 -0.5)"><switch><foreignObject pointer-events="none" width="100%" height="100%" requiredFeatures="http://www.w3.org/TR/SVG11/feature#Extensibility" style="overflow: visible; text-align: left;"><div xmlns="http://www.w3.org/1999/xhtml" style="display: flex; align-items: unsafe center; justify-content: unsafe center; width: 128px; height: 1px; padding-top: 660px; margin-left: 471px;"><div data-drawio-colors="color: #ffffff; " style="box-sizing: border-box; font-size: 0px; text-align: center;"><div style="display: inline-block; font-size: 12px; font-family: Helvetica; color: rgb(255, 255, 255); line-height: 1.2; pointer-events: none; font-weight: bold; white-space: normal; overflow-wrap: normal;">Recibe aviso y<br />Lleva CTA a Mesa</div></div></div></foreignObject><text x="535" y="664" fill="#ffffff" font-family="Helvetica" font-size="12px" text-anchor="middle" font-weight="bold">Recibe aviso y...</text></switch></g><path d="M 630 40 L 630 0 L 830 0 L 830 40" fill="#fffbf0" stroke="#f59e0b" stroke-miterlimit="10" pointer-events="none"/><path d="M 630 40 L 630 750 L 830 750 L 830 40" fill="none" stroke="#f59e0b" stroke-miterlimit="10" pointer-events="none"/><path d="M 630 40 L 830 40" fill="none" stroke="#f59e0b" stroke-miterlimit="10" pointer-events="none"/><g fill="#995a00" font-family="Helvetica" font-weight="bold" pointer-events="none" text-anchor="middle" font-size="12px"><text x="729.5" y="24.5">Cocina (KDS)</text></g><rect x="670" y="250" width="120" height="40" rx="6" ry="6" fill="#000000" stroke="#000000" pointer-events="none" transform="translate(2,3)" opacity="0.25"/><rect x="670" y="250" width="120" height="40" rx="6" ry="6" fill="#ffffff" stroke="#f59e0b" pointer-events="none"/><g transform="translate(-0.5 -0.5)"><switch><foreignObject pointer-events="none" width="100%" height="100%" requiredFeatures="http://www.w3.org/TR/SVG11/feature#Extensibility" style="overflow: visible; text-align: left;"><div xmlns="http://www.w3.org/1999/xhtml" style="display: flex; align-items: unsafe center; justify-content: unsafe center; width: 118px; height: 1px; padding-top: 270px; margin-left: 671px;"><div data-drawio-colors="color: #995a00; " style="box-sizing: border-box; font-size: 0px; text-align: center;"><div style="display: inline-block; font-size: 12px; font-family: Helvetica; color: rgb(153, 90, 0); line-height: 1.2; pointer-events: none; white-space: normal; overflow-wrap: normal;">Visualiza y<br />Prepara Pedido</div></div></div></foreignObject><text x="730" y="274" fill="#995a00" font-family="Helvetica" font-size="12px" text-anchor="middle">Visualiza y...</text></switch></g><rect x="670" y="330" width="120" height="40" rx="6" ry="6" fill="#000000" stroke="#000000" pointer-events="none" transform="translate(2,3)" opacity="0.25"/><rect x="670" y="330" width="120" height="40" rx="6" ry="6" fill="#f59e0b" stroke="#f59e0b" pointer-events="none"/><g transform="translate(-0.5 -0.5)"><switch><foreignObject pointer-events="none" width="100%" height="100%" requiredFeatures="http://www.w3.org/TR/SVG11/feature#Extensibility" style="overflow: visible; text-align: left;"><div xmlns="http://www.w3.org/1999/xhtml" style="display: flex; align-items: unsafe center; justify-content: unsafe center; width: 118px; height: 1px; padding-top: 350px; margin-left: 671px;"><div data-drawio-colors="color: #ffffff; " style="box-sizing: border-box; font-size: 0px; text-align: center;"><div style="display: inline-block; font-size: 12px; font-family: Helvetica; color: rgb(255, 255, 255); line-height: 1.2; pointer-events: none; font-weight: bold; white-space: normal; overflow-wrap: normal;">Avisa que está<br />Listo para Entrega</div></div></div></foreignObject><text x="730" y="354" fill="#ffffff" font-family="Helvetica" font-size="12px" text-anchor="middle" font-weight="bold">Avisa que está...</text></switch></g><path d="M 730 290 L 730 323.63" fill="none" stroke="rgb(0, 0, 0)" stroke-miterlimit="10" pointer-events="none"/><path d="M 730 328.88 L 726.5 321.88 L 730 323.63 L 733.5 321.88 Z" fill="rgb(0, 0, 0)" stroke="rgb(0, 0, 0)" stroke-miterlimit="10" pointer-events="none"/><path d="M 830 40 L 830 0 L 1050 0 L 1050 40" fill="#f0fdf4" stroke="#16a34a" stroke-miterlimit="10" pointer-events="none"/><path d="M 830 40 L 830 750 L 1050 750 L 1050 40" fill="none" stroke="#16a34a" stroke-miterlimit="10" pointer-events="none"/><path d="M 830 40 L 1050 40" fill="none" stroke="#16a34a" stroke-miterlimit="10" pointer-events="none"/><g fill="#166534" font-family="Helvetica" font-weight="bold" pointer-events="none" text-anchor="middle" font-size="12px"><text x="939.5" y="24.5">Caja / Admin</text></g><rect x="880" y="490" width="130" height="40" rx="6" ry="6" fill="#000000" stroke="#000000" pointer-events="none" transform="translate(2,3)" opacity="0.25"/><rect x="880" y="490" width="130" height="40" rx="6" ry="6" fill="#ffffff" stroke="#16a34a" pointer-events="none"/><g transform="translate(-0.5 -0.5)"><switch><foreignObject pointer-events="none" width="100%" height="100%" requiredFeatures="http://www.w3.org/TR/SVG11/feature#Extensibility" style="overflow: visible; text-align: left;"><div xmlns="http://www.w3.org/1999/xhtml" style="display: flex; align-items: unsafe center; justify-content: unsafe center; width: 128px; height: 1px; padding-top: 510px; margin-left: 881px;"><div data-drawio-colors="color: #166534; " style="box-sizing: border-box; font-size: 0px; text-align: center;"><div style="display: inline-block; font-size: 12px; font-family: Helvetica; color: rgb(22, 101, 52); line-height: 1.2; pointer-events: none; white-space: normal; overflow-wrap: normal;">Caja Recibe Solicitud</div></div></div></foreignObject><text x="945" y="514" fill="#166534" font-family="Helvetica" font-size="12px" text-anchor="middle">Caja Recibe Solicitud</text></switch></g><rect x="880" y="560" width="130" height="40" rx="6" ry="6" fill="#000000" stroke="#000000" pointer-events="none" transform="translate(2,3)" opacity="0.25"/><rect x="880" y="560" width="130" height="40" rx="6" ry="6" fill="#ffffff" stroke="#16a34a" pointer-events="none"/><g transform="translate(-0.5 -0.5)"><switch><foreignObject pointer-events="none" width="100%" height="100%" requiredFeatures="http://www.w3.org/TR/SVG11/feature#Extensibility" style="overflow: visible; text-align: left;"><div xmlns="http://www.w3.org/1999/xhtml" style="display: flex; align-items: unsafe center; justify-content: unsafe center; width: 128px; height: 1px; padding-top: 580px; margin-left: 881px;"><div data-drawio-colors="color: #166534; " style="box-sizing: border-box; font-size: 0px; text-align: center;"><div style="display: inline-block; font-size: 12px; font-family: Helvetica; color: rgb(22, 101, 52); line-height: 1.2; pointer-events: none; white-space: normal; overflow-wrap: normal;">Avisa al Garzón<br />para cobrar</div></div></div></foreignObject><text x="945" y="584" fill="#166534" font-family="Helvetica" font-size="12px" text-anchor="middle">Avisa al Garzón...</text></switch></g><ellipse cx="945" cy="660" rx="65" ry="25" fill="#000000" stroke="#000000" pointer-events="none" transform="translate(2,3)" opacity="0.25"/><ellipse cx="945" cy="660" rx="65" ry="25" fill="#16a34a" stroke="#16a34a" pointer-events="none"/><g transform="translate(-0.5 -0.5)"><switch><foreignObject pointer-events="none" width="100%" height="100%" requiredFeatures="http://www.w3.org/TR/SVG11/feature#Extensibility" style="overflow: visible; text-align: left;"><div xmlns="http://www.w3.org/1999/xhtml" style="display: flex; align-items: unsafe center; justify-content: unsafe center; width: 128px; height: 1px; padding-top: 660px; margin-left: 881px;"><div data-drawio-colors="color: #ffffff; " style="box-sizing: border-box; font-size: 0px; text-align: center;"><div style="display: inline-block; font-size: 9px; font-family: Helvetica; color: rgb(255, 255, 255); line-height: 1.2; pointer-events: none; font-weight: bold; white-space: normal; overflow-wrap: normal;">Cierra Cuenta\n(Analíticas/SaaS)</div></div></div></foreignObject><text x="945" y="663" fill="#ffffff" font-family="Helvetica" font-size="9px" text-anchor="middle" font-weight="bold">Cierra Cuenta\n(Analíticas/S...</text></switch></g><path d="M 945 530 L 945 553.63" fill="none" stroke="rgb(0, 0, 0)" stroke-miterlimit="10" pointer-events="none"/><path d="M 945 558.88 L 941.5 551.88 L 945 553.63 L 948.5 551.88 Z" fill="rgb(0, 0, 0)" stroke="rgb(0, 0, 0)" stroke-miterlimit="10" pointer-events="none"/><path d="M 190 100 L 263.63 100" fill="none" stroke="rgb(0, 0, 0)" stroke-miterlimit="10" pointer-events="none"/><path d="M 268.88 100 L 261.88 103.5 L 263.63 100 L 261.88 96.5 Z" fill="rgb(0, 0, 0)" stroke="rgb(0, 0, 0)" stroke-miterlimit="10" pointer-events="none"/><path d="M 330 130 L 330 170 Q 330 180 340 180 L 463.63 180" fill="none" stroke="rgb(0, 0, 0)" stroke-miterlimit="10" pointer-events="none"/><path d="M 468.88 180 L 461.88 183.5 L 463.63 180 L 461.88 176.5 Z" fill="rgb(0, 0, 0)" stroke="rgb(0, 0, 0)" stroke-miterlimit="10" pointer-events="none"/><path d="M 470 180 L 340 180 Q 330 180 330 190 L 330 233.63" fill="none" stroke="rgb(0, 0, 0)" stroke-miterlimit="10" pointer-events="none"/><path d="M 330 238.88 L 326.5 231.88 L 330 233.63 L 333.5 231.88 Z" fill="rgb(0, 0, 0)" stroke="rgb(0, 0, 0)" stroke-miterlimit="10" pointer-events="none"/><path d="M 390 270 L 663.63 270" fill="none" stroke="rgb(0, 0, 0)" stroke-miterlimit="10" pointer-events="none"/><path d="M 668.88 270 L 661.88 273.5 L 663.63 270 L 661.88 266.5 Z" fill="rgb(0, 0, 0)" stroke="rgb(0, 0, 0)" stroke-miterlimit="10" pointer-events="none"/><path d="M 670 350 L 396.37 350" fill="none" stroke="rgb(0, 0, 0)" stroke-miterlimit="10" pointer-events="none"/><path d="M 391.12 350 L 398.12 346.5 L 396.37 350 L 398.12 353.5 Z" fill="rgb(0, 0, 0)" stroke="rgb(0, 0, 0)" stroke-miterlimit="10" pointer-events="none"/><path d="M 330 380 L 330 420 Q 330 430 340 430 L 463.63 430" fill="none" stroke="rgb(0, 0, 0)" stroke-miterlimit="10" pointer-events="none"/><path d="M 468.88 430 L 461.88 433.5 L 463.63 430 L 461.88 426.5 Z" fill="rgb(0, 0, 0)" stroke="rgb(0, 0, 0)" stroke-miterlimit="10" pointer-events="none"/><path d="M 470 430 L 396.37 430" fill="none" stroke="rgb(0, 0, 0)" stroke-miterlimit="10" pointer-events="none"/><path d="M 391.12 430 L 398.12 426.5 L 396.37 430 L 398.12 433.5 Z" fill="rgb(0, 0, 0)" stroke="rgb(0, 0, 0)" stroke-miterlimit="10" pointer-events="none"/><path d="M 190 510 L 263.63 510" fill="none" stroke="rgb(0, 0, 0)" stroke-miterlimit="10" pointer-events="none"/><path d="M 268.88 510 L 261.88 513.5 L 263.63 510 L 261.88 506.5 Z" fill="rgb(0, 0, 0)" stroke="rgb(0, 0, 0)" stroke-miterlimit="10" pointer-events="none"/><path d="M 390 510 L 873.63 510" fill="none" stroke="rgb(0, 0, 0)" stroke-miterlimit="10" pointer-events="none"/><path d="M 878.88 510 L 871.88 513.5 L 873.63 510 L 871.88 506.5 Z" fill="rgb(0, 0, 0)" stroke="rgb(0, 0, 0)" stroke-miterlimit="10" pointer-events="none"/><path d="M 880 580 L 396.37 580" fill="none" stroke="rgb(0, 0, 0)" stroke-miterlimit="10" pointer-events="none"/><path d="M 391.12 580 L 398.12 576.5 L 396.37 580 L 398.12 583.5 Z" fill="rgb(0, 0, 0)" stroke="rgb(0, 0, 0)" stroke-miterlimit="10" pointer-events="none"/><path d="M 330 610 L 330 650 Q 330 660 340 660 L 463.63 660" fill="none" stroke="rgb(0, 0, 0)" stroke-miterlimit="10" pointer-events="none"/><path d="M 468.88 660 L 461.88 663.5 L 463.63 660 L 461.88 656.5 Z" fill="rgb(0, 0, 0)" stroke="rgb(0, 0, 0)" stroke-miterlimit="10" pointer-events="none"/><path d="M 600 660 L 873.63 660" fill="none" stroke="rgb(0, 0, 0)" stroke-miterlimit="10" pointer-events="none"/><path d="M 878.88 660 L 871.88 663.5 L 873.63 660 L 871.88 656.5 Z" fill="rgb(0, 0, 0)" stroke="rgb(0, 0, 0)" stroke-miterlimit="10" pointer-events="none"/></g><switch><g requiredFeatures="http://www.w3.org/TR/SVG11/feature#Extensibility"/><a transform="translate(0,-5)" xlink:href="https://www.diagrams.net/doc/faq/svg-export-text-problems" target="_blank"><text text-anchor="middle" font-size="10px" x="50%" y="100%">Text is not SVG - cannot display</text></a></switch></svg>